<svg width="50" height="50" viewBox="0 0 50 50" fill="none" xmlns="http://www.w3.org/2000/svg">
<g clip-path="url(#clip0_205_7)">
<rect width="50" height="50" rx="10" fill="white"/>
<rect width="50" height="50" fill="black"/>
<path d="M27.4522 21.3619C27.3994 20.727 27.1517 20.2317 26.7092 19.8762C26.2733 19.5206 25.6096 19.3429 24.7179 19.3429C24.15 19.3429 23.6843 19.4095 23.3211 19.5429C22.9645 19.6698 22.7003 19.8444 22.5286 20.0667C22.3568 20.2889 22.2677 20.5429 22.2611 20.8286C22.2479 21.0635 22.2908 21.2762 22.3899 21.4667C22.4955 21.6508 22.6606 21.819 22.8852 21.9714C23.1098 22.1175 23.397 22.2508 23.7471 22.3714C24.0971 22.4921 24.5132 22.6 24.9953 22.6952L26.6597 23.0381C27.7824 23.2667 28.7434 23.5683 29.5425 23.9429C30.3417 24.3175 30.9955 24.7587 31.5041 25.2667C32.0126 25.7683 32.3858 26.3333 32.6235 26.9619C32.8679 27.5905 32.9934 28.2762 33 29.019C32.9934 30.3016 32.6599 31.3873 31.9994 32.2762C31.339 33.1651 30.3945 33.8413 29.1661 34.3048C27.9442 34.7683 26.4747 35 24.7576 35C22.9942 35 21.4553 34.7492 20.141 34.2476C18.8333 33.746 17.8162 32.9746 17.0897 31.9333C16.3699 30.8857 16.0066 29.546 16 27.9143H21.2308C21.2638 28.5111 21.419 29.0127 21.6964 29.419C21.9738 29.8254 22.3634 30.1333 22.8654 30.3429C23.3739 30.5524 23.9782 30.6571 24.6783 30.6571C25.2661 30.6571 25.7582 30.5873 26.1544 30.4476C26.5507 30.3079 26.8512 30.1143 27.0559 29.8667C27.2607 29.619 27.3664 29.3365 27.373 29.019C27.3664 28.7206 27.264 28.4603 27.0658 28.2381C26.8743 28.0095 26.5573 27.8063 26.1148 27.6286C25.6723 27.4444 25.0746 27.273 24.3217 27.1143L22.3007 26.6952C20.5043 26.3206 19.0876 25.6952 18.0507 24.819C17.0204 23.9365 16.5085 22.7333 16.5152 21.2095C16.5085 19.9714 16.852 18.8889 17.5455 17.9619C18.2455 17.0286 19.2131 16.3016 20.4481 15.781C21.6898 15.2603 23.1131 15 24.7179 15C26.3559 15 27.7725 15.2635 28.9679 15.7905C30.1634 16.3175 31.0847 17.0603 31.7319 18.019C32.3858 18.9714 32.716 20.0857 32.7226 21.3619H27.4522Z" fill="white"/>
</g>
<defs>
<clipPath id="clip0_205_7">
<rect width="50" height="50" rx="10" fill="white"/>
</clipPath>
</defs>
</svg>
