<svg width="157" height="23" viewBox="0 0 157 23" fill="none" xmlns="http://www.w3.org/2000/svg">
<path d="M12.7287 7.50011C12.6738 6.81356 12.4163 6.27805 11.9563 5.89358C11.5032 5.50911 10.8132 5.31687 9.88635 5.31687C9.29592 5.31687 8.8119 5.38896 8.43429 5.53314C8.06355 5.67045 7.78893 5.85925 7.61043 6.09954C7.43193 6.33984 7.33924 6.61446 7.33238 6.92341C7.31864 7.17743 7.36327 7.40743 7.46625 7.61339C7.5761 7.81249 7.74774 7.99443 7.98117 8.1592C8.2146 8.31711 8.51325 8.46129 8.87712 8.59173C9.24099 8.72218 9.67352 8.83889 10.1747 8.94187L11.9048 9.31261C13.072 9.55977 14.0709 9.88588 14.9016 10.2909C15.7324 10.696 16.412 11.1732 16.9407 11.7224C17.4693 12.2648 17.8572 12.8758 18.1044 13.5555C18.3584 14.2352 18.4889 14.9767 18.4957 15.7799C18.4889 17.1668 18.1422 18.3408 17.4556 19.302C16.769 20.2631 15.7873 20.9943 14.5103 21.4955C13.2402 21.9967 11.7126 22.2473 9.92755 22.2473C8.09445 22.2473 6.49478 21.9761 5.12854 21.4337C3.76917 20.8913 2.71187 20.0572 1.95667 18.9312C1.20832 17.7984 0.830718 16.3498 0.823853 14.5853H6.26135C6.29568 15.2307 6.45702 15.7731 6.74537 16.2125C7.03373 16.6519 7.43879 16.9848 7.96057 17.2114C8.48922 17.438 9.11741 17.5512 9.84516 17.5512C10.4562 17.5512 10.9677 17.4757 11.3796 17.3247C11.7915 17.1736 12.1039 16.9642 12.3168 16.6965C12.5296 16.4287 12.6394 16.1232 12.6463 15.7799C12.6394 15.4573 12.533 15.1758 12.327 14.9355C12.1279 14.6883 11.7984 14.4686 11.3384 14.2764C10.8784 14.0773 10.2571 13.8919 9.47442 13.7203L7.37357 13.2672C5.50614 12.8621 4.03349 12.1858 2.9556 11.2384C1.88458 10.2841 1.3525 8.98307 1.35936 7.33534C1.3525 5.99656 1.70951 4.82599 2.43039 3.82362C3.15813 2.81439 4.16393 2.02828 5.44779 1.46531C6.73851 0.902336 8.21803 0.62085 9.88635 0.62085C11.589 0.62085 13.0617 0.905769 14.3043 1.47561C15.547 2.04545 16.5047 2.84871 17.1775 3.88541C17.8572 4.91524 18.2005 6.12014 18.2074 7.50011H12.7287Z" fill="white"/>
<path d="M28.3357 22.2885C26.6468 22.2885 25.1913 21.9658 23.9693 21.3204C22.7541 20.6682 21.8169 19.7345 21.1578 18.5193C20.5056 17.2972 20.1795 15.8349 20.1795 14.1322C20.1795 12.4982 20.509 11.0702 21.1681 9.84812C21.8272 8.62606 22.7575 7.67518 23.959 6.9955C25.1604 6.31581 26.5782 5.97596 28.2122 5.97596C29.4068 5.97596 30.4881 6.16133 31.4561 6.53207C32.4242 6.90281 33.2515 7.44175 33.938 8.1489C34.6246 8.84919 35.1532 9.70051 35.524 10.7029C35.8947 11.7052 36.0801 12.8346 36.0801 14.091V15.4092H21.9508V12.2785H30.8485C30.8417 11.8254 30.725 11.4272 30.4984 11.0839C30.2787 10.7338 29.98 10.4626 29.6024 10.2704C29.2317 10.0713 28.8095 9.9717 28.3357 9.9717C27.8758 9.9717 27.4535 10.0713 27.0691 10.2704C26.6846 10.4626 26.3756 10.7303 26.1422 11.0736C25.9156 11.4169 25.7955 11.8185 25.7818 12.2785V15.6564C25.7818 16.1644 25.8882 16.6175 26.101 17.0157C26.3139 17.4139 26.6194 17.7263 27.0176 17.9529C27.4158 18.1794 27.8964 18.2927 28.4593 18.2927C28.8507 18.2927 29.2077 18.2378 29.5304 18.128C29.8599 18.0181 30.1414 17.8602 30.3748 17.6542C30.6082 17.4414 30.7799 17.1874 30.8897 16.8922H36.0801C35.9016 17.9906 35.4793 18.945 34.8134 19.7551C34.1474 20.5583 33.2652 21.1831 32.1667 21.6294C31.0751 22.0688 29.7981 22.2885 28.3357 22.2885Z" fill="white"/>
<path d="M53.945 6.18193L48.6311 22.0001H42.0402L36.7263 6.18193H42.6993L45.2533 16.645H45.418L47.972 6.18193H53.945Z" fill="white"/>
<path d="M62.66 22.2885C60.9711 22.2885 59.5156 21.9658 58.2935 21.3204C57.0783 20.6682 56.1411 19.7345 55.4821 18.5193C54.8298 17.2972 54.5037 15.8349 54.5037 14.1322C54.5037 12.4982 54.8333 11.0702 55.4924 9.84812C56.1514 8.62606 57.0817 7.67518 58.2832 6.9955C59.4847 6.31581 60.9024 5.97596 62.5364 5.97596C63.731 5.97596 64.8123 6.16133 65.7803 6.53207C66.7484 6.90281 67.5757 7.44175 68.2622 8.1489C68.9488 8.84919 69.4774 9.70051 69.8482 10.7029C70.2189 11.7052 70.4043 12.8346 70.4043 14.091V15.4092H56.275V12.2785H65.1728C65.1659 11.8254 65.0492 11.4272 64.8226 11.0839C64.6029 10.7338 64.3043 10.4626 63.9267 10.2704C63.5559 10.0713 63.1337 9.9717 62.66 9.9717C62.2 9.9717 61.7777 10.0713 61.3933 10.2704C61.0088 10.4626 60.6999 10.7303 60.4664 11.0736C60.2399 11.4169 60.1197 11.8185 60.106 12.2785V15.6564C60.106 16.1644 60.2124 16.6175 60.4252 17.0157C60.6381 17.4139 60.9436 17.7263 61.3418 17.9529C61.74 18.1794 62.2206 18.2927 62.7835 18.2927C63.1749 18.2927 63.5319 18.2378 63.8546 18.128C64.1841 18.0181 64.4656 17.8602 64.699 17.6542C64.9325 17.4414 65.1041 17.1874 65.2139 16.8922H70.4043C70.2258 17.9906 69.8036 18.945 69.1376 19.7551C68.4716 20.5583 67.5894 21.1831 66.4909 21.6294C65.3993 22.0688 64.1223 22.2885 62.66 22.2885Z" fill="white"/>
<path d="M78.4086 13.1024V22.0001H72.724V6.18193H78.1203V9.18903H78.2851C78.6283 8.18666 79.2325 7.40056 80.0976 6.83072C80.9695 6.26088 81.9856 5.97596 83.1459 5.97596C84.2649 5.97596 85.2364 6.23342 86.0603 6.74834C86.891 7.25638 87.5329 7.95667 87.9861 8.84919C88.446 9.74171 88.6726 10.7612 88.6657 11.9078V22.0001H82.9811V13.1024C82.9879 12.3197 82.7888 11.7052 82.3838 11.259C81.9856 10.8127 81.4295 10.5896 80.7155 10.5896C80.2486 10.5896 79.8401 10.6926 79.49 10.8985C79.1467 11.0976 78.8824 11.386 78.697 11.7636C78.5116 12.1343 78.4155 12.5806 78.4086 13.1024Z" fill="white"/>
<path d="M98.6808 22.3297C97.1979 22.3297 95.9209 21.9795 94.8499 21.2792C93.7788 20.5789 92.955 19.6143 92.3783 18.3854C91.8016 17.1565 91.5132 15.7525 91.5132 14.1734C91.5132 12.5669 91.8084 11.1491 92.3989 9.92021C92.9962 8.68442 93.8269 7.71981 94.8911 7.02639C95.9621 6.32611 97.2116 5.97596 98.6396 5.97596C99.7519 5.97596 100.754 6.18193 101.647 6.59386C102.539 7.00579 103.27 7.5825 103.84 8.32397C104.41 9.06545 104.764 9.93051 104.901 10.9191H102.471C102.285 10.1983 101.873 9.55977 101.235 9.00366C100.603 8.44069 99.7519 8.1592 98.6808 8.1592C97.7334 8.1592 96.9027 8.40636 96.1886 8.90068C95.4815 9.38813 94.9288 10.0781 94.5306 10.9706C94.1393 11.8563 93.9436 12.8964 93.9436 14.091C93.9436 15.3131 94.1358 16.3772 94.5203 17.2835C94.9117 18.1897 95.4609 18.8935 96.168 19.3946C96.8821 19.8958 97.7197 20.1464 98.6808 20.1464C99.3125 20.1464 99.8857 20.0366 100.401 19.8169C100.916 19.5972 101.352 19.2814 101.709 18.8694C102.066 18.4575 102.32 17.9632 102.471 17.3865H104.901C104.764 18.3202 104.424 19.1612 103.881 19.9096C103.346 20.651 102.635 21.2415 101.75 21.6809C100.871 22.1134 99.848 22.3297 98.6808 22.3297Z" fill="white"/>
<path d="M114.88 22.3297C113.452 22.3297 112.199 21.9898 111.121 21.3101C110.05 20.6304 109.213 19.6796 108.608 18.4575C108.011 17.2354 107.712 15.8074 107.712 14.1734C107.712 12.5257 108.011 11.0874 108.608 9.85842C109.213 8.62949 110.05 7.67518 111.121 6.9955C112.199 6.31581 113.452 5.97596 114.88 5.97596C116.308 5.97596 117.558 6.31581 118.629 6.9955C119.707 7.67518 120.544 8.62949 121.141 9.85842C121.746 11.0874 122.048 12.5257 122.048 14.1734C122.048 15.8074 121.746 17.2354 121.141 18.4575C120.544 19.6796 119.707 20.6304 118.629 21.3101C117.558 21.9898 116.308 22.3297 114.88 22.3297ZM114.88 20.1464C115.965 20.1464 116.857 19.8684 117.558 19.3123C118.258 18.7561 118.776 18.025 119.113 17.1187C119.449 16.2125 119.617 15.2307 119.617 14.1734C119.617 13.1161 119.449 12.1309 119.113 11.2178C118.776 10.3047 118.258 9.56664 117.558 9.00366C116.857 8.44069 115.965 8.1592 114.88 8.1592C113.795 8.1592 112.903 8.44069 112.202 9.00366C111.502 9.56664 110.984 10.3047 110.647 11.2178C110.311 12.1309 110.143 13.1161 110.143 14.1734C110.143 15.2307 110.311 16.2125 110.647 17.1187C110.984 18.025 111.502 18.7561 112.202 19.3123C112.903 19.8684 113.795 20.1464 114.88 20.1464Z" fill="white"/>
<path d="M131.731 22.3297C130.412 22.3297 129.249 21.9967 128.24 21.3307C127.23 20.6579 126.441 19.7105 125.871 18.4884C125.301 17.2595 125.016 15.8074 125.016 14.1322C125.016 12.4708 125.301 11.029 125.871 9.80693C126.441 8.58487 127.234 7.64085 128.25 6.9749C129.266 6.30894 130.44 5.97596 131.772 5.97596C132.802 5.97596 133.615 6.1476 134.213 6.49088C134.817 6.82729 135.277 7.21176 135.592 7.64429C135.915 8.06995 136.166 8.42009 136.344 8.69471H136.55V0.909202H138.981V22.0001H136.633V19.5697H136.344C136.166 19.8581 135.912 20.2219 135.582 20.6613C135.253 21.0939 134.782 21.4818 134.171 21.825C133.56 22.1615 132.747 22.3297 131.731 22.3297ZM132.06 20.1464C133.035 20.1464 133.859 19.8924 134.532 19.3843C135.205 18.8694 135.716 18.1588 136.066 17.2526C136.416 16.3395 136.591 15.2856 136.591 14.091C136.591 12.9101 136.42 11.8769 136.077 10.9912C135.733 10.0987 135.225 9.4053 134.552 8.91098C133.88 8.40979 133.049 8.1592 132.06 8.1592C131.03 8.1592 130.172 8.42352 129.486 8.95217C128.806 9.47395 128.294 10.1845 127.951 11.0839C127.615 11.9764 127.447 12.9788 127.447 14.091C127.447 15.217 127.618 16.2399 127.961 17.1599C128.312 18.073 128.827 18.8008 129.506 19.3432C130.193 19.8787 131.044 20.1464 132.06 20.1464Z" fill="white"/>
<path d="M150.401 22.3297C148.877 22.3297 147.563 21.9932 146.457 21.3204C145.359 20.6407 144.511 19.6933 143.914 18.4781C143.323 17.256 143.028 15.8349 143.028 14.2146C143.028 12.5943 143.323 11.1663 143.914 9.93051C144.511 8.68785 145.342 7.71981 146.406 7.02639C147.477 6.32611 148.726 5.97596 150.154 5.97596C150.978 5.97596 151.792 6.11327 152.595 6.38789C153.398 6.66252 154.129 7.10878 154.789 7.72667C155.448 8.33771 155.973 9.14784 156.364 10.1571C156.755 11.1663 156.951 12.409 156.951 13.8851V14.9149H144.758V12.814H154.48C154.48 11.9215 154.301 11.1251 153.944 10.4248C153.594 9.72454 153.093 9.17187 152.441 8.7668C151.795 8.36174 151.033 8.1592 150.154 8.1592C149.186 8.1592 148.349 8.3995 147.641 8.88008C146.941 9.3538 146.402 9.9717 146.025 10.7338C145.647 11.4959 145.458 12.3128 145.458 13.1848V14.5853C145.458 15.7799 145.664 16.7926 146.076 17.6233C146.495 18.4472 147.075 19.0754 147.817 19.5079C148.558 19.9336 149.42 20.1464 150.401 20.1464C151.04 20.1464 151.617 20.0572 152.132 19.8787C152.653 19.6933 153.103 19.4187 153.481 19.0548C153.858 18.6841 154.15 18.2241 154.356 17.6748L156.704 18.3339C156.457 19.1303 156.041 19.8306 155.458 20.4348C154.874 21.0321 154.153 21.4989 153.295 21.8353C152.437 22.1649 151.472 22.3297 150.401 22.3297Z" fill="white"/>
</svg>
