<svg width="157" height="22" viewBox="0 0 157 22" fill="none" xmlns="http://www.w3.org/2000/svg">
<path d="M12.7287 6.87926C12.6738 6.19271 12.4163 5.6572 11.9563 5.27273C11.5032 4.88826 10.8132 4.69602 9.88635 4.69602C9.29592 4.69602 8.8119 4.76811 8.43429 4.91229C8.06355 5.0496 7.78893 5.2384 7.61043 5.47869C7.43193 5.71899 7.33924 5.99361 7.33238 6.30256C7.31864 6.55658 7.36327 6.78658 7.46625 6.99254C7.5761 7.19164 7.74774 7.37358 7.98117 7.53835C8.2146 7.69626 8.51325 7.84044 8.87712 7.97088C9.24099 8.10133 9.67352 8.21804 10.1747 8.32102L11.9048 8.69176C13.072 8.93892 14.0709 9.26503 14.9016 9.6701C15.7324 10.0752 16.412 10.5523 16.9407 11.1016C17.4693 11.6439 17.8572 12.255 18.1044 12.9347C18.3584 13.6143 18.4889 14.3558 18.4957 15.1591C18.4889 16.5459 18.1422 17.7199 17.4556 18.6811C16.769 19.6423 15.7873 20.3735 14.5103 20.8746C13.2402 21.3758 11.7126 21.6264 9.92755 21.6264C8.09445 21.6264 6.49478 21.3552 5.12854 20.8129C3.76917 20.2705 2.71187 19.4363 1.95667 18.3104C1.20832 17.1776 0.830718 15.7289 0.823853 13.9645H6.26135C6.29568 14.6098 6.45702 15.1522 6.74537 15.5916C7.03373 16.031 7.43879 16.364 7.96057 16.5906C8.48922 16.8171 9.11741 16.9304 9.84516 16.9304C10.4562 16.9304 10.9677 16.8549 11.3796 16.7038C11.7915 16.5528 12.1039 16.3434 12.3168 16.0756C12.5296 15.8079 12.6394 15.5024 12.6463 15.1591C12.6394 14.8364 12.533 14.5549 12.327 14.3146C12.1279 14.0675 11.7984 13.8478 11.3384 13.6555C10.8784 13.4564 10.2571 13.2711 9.47442 13.0994L7.37357 12.6463C5.50614 12.2412 4.03349 11.565 2.9556 10.6175C1.88458 9.66323 1.3525 8.36222 1.35936 6.71449C1.3525 5.37571 1.70951 4.20514 2.43039 3.20277C3.15813 2.19354 4.16393 1.40743 5.44779 0.84446C6.73851 0.281487 8.21803 0 9.88635 0C11.589 0 13.0617 0.28492 14.3043 0.854759C15.547 1.4246 16.5047 2.22787 17.1775 3.26456C17.8572 4.29439 18.2005 5.49929 18.2074 6.87926H12.7287Z" fill="white"/>
<path d="M28.3357 21.6676C26.6468 21.6676 25.1913 21.3449 23.9693 20.6996C22.7541 20.0474 21.8169 19.1136 21.1578 17.8984C20.5056 16.6764 20.1795 15.214 20.1795 13.5114C20.1795 11.8774 20.509 10.4493 21.1681 9.22727C21.8272 8.00521 22.7575 7.05433 23.959 6.37465C25.1604 5.69496 26.5782 5.35511 28.2122 5.35511C29.4068 5.35511 30.4881 5.54048 31.4561 5.91122C32.4242 6.28196 33.2515 6.8209 33.938 7.52805C34.6246 8.22834 35.1532 9.07966 35.524 10.082C35.8947 11.0844 36.0801 12.2138 36.0801 13.4702V14.7884H21.9508V11.6577H30.8485C30.8417 11.2045 30.725 10.8063 30.4984 10.4631C30.2787 10.1129 29.98 9.84174 29.6024 9.6495C29.2317 9.4504 28.8095 9.35085 28.3357 9.35085C27.8758 9.35085 27.4535 9.4504 27.0691 9.6495C26.6846 9.84174 26.3756 10.1095 26.1422 10.4528C25.9156 10.796 25.7955 11.1977 25.7818 11.6577V15.0355C25.7818 15.5436 25.8882 15.9967 26.101 16.3949C26.3139 16.7931 26.6194 17.1055 27.0176 17.332C27.4158 17.5586 27.8964 17.6719 28.4593 17.6719C28.8507 17.6719 29.2077 17.617 29.5304 17.5071C29.8599 17.3973 30.1414 17.2393 30.3748 17.0334C30.6082 16.8206 30.7799 16.5665 30.8897 16.2713H36.0801C35.9016 17.3698 35.4793 18.3241 34.8134 19.1342C34.1474 19.9375 33.2652 20.5623 32.1667 21.0085C31.0751 21.4479 29.7981 21.6676 28.3357 21.6676Z" fill="white"/>
<path d="M53.945 5.56108L48.6311 21.3793H42.0402L36.7263 5.56108H42.6993L45.2533 16.0241H45.418L47.972 5.56108H53.945Z" fill="white"/>
<path d="M62.66 21.6676C60.971 21.6676 59.5156 21.3449 58.2935 20.6996C57.0783 20.0474 56.1411 19.1136 55.4821 17.8984C54.8298 16.6764 54.5037 15.214 54.5037 13.5114C54.5037 11.8774 54.8333 10.4493 55.4924 9.22727C56.1514 8.00521 57.0817 7.05433 58.2832 6.37465C59.4847 5.69496 60.9024 5.35511 62.5364 5.35511C63.731 5.35511 64.8123 5.54048 65.7803 5.91122C66.7484 6.28196 67.5757 6.8209 68.2622 7.52805C68.9488 8.22834 69.4774 9.07966 69.8482 10.082C70.2189 11.0844 70.4043 12.2138 70.4043 13.4702V14.7884H56.275V11.6577H65.1728C65.1659 11.2045 65.0492 10.8063 64.8226 10.4631C64.6029 10.1129 64.3043 9.84174 63.9267 9.6495C63.5559 9.4504 63.1337 9.35085 62.66 9.35085C62.2 9.35085 61.7777 9.4504 61.3933 9.6495C61.0088 9.84174 60.6999 10.1095 60.4664 10.4528C60.2399 10.796 60.1197 11.1977 60.106 11.6577V15.0355C60.106 15.5436 60.2124 15.9967 60.4252 16.3949C60.6381 16.7931 60.9436 17.1055 61.3418 17.332C61.74 17.5586 62.2206 17.6719 62.7835 17.6719C63.1749 17.6719 63.5319 17.617 63.8546 17.5071C64.1841 17.3973 64.4656 17.2393 64.699 17.0334C64.9325 16.8206 65.1041 16.5665 65.2139 16.2713H70.4043C70.2258 17.3698 69.8036 18.3241 69.1376 19.1342C68.4716 19.9375 67.5894 20.5623 66.4909 21.0085C65.3993 21.4479 64.1223 21.6676 62.66 21.6676Z" fill="white"/>
<path d="M78.4086 12.4815V21.3793H72.724V5.56108H78.1203V8.56818H78.2851C78.6283 7.56581 79.2325 6.77971 80.0976 6.20987C80.9695 5.64003 81.9856 5.35511 83.1459 5.35511C84.2649 5.35511 85.2364 5.61257 86.0603 6.12749C86.891 6.63554 87.5329 7.33582 87.9861 8.22834C88.446 9.12086 88.6726 10.1404 88.6657 11.2869V21.3793H82.9811V12.4815C82.9879 11.6989 82.7888 11.0844 82.3838 10.6381C81.9856 10.1919 81.4295 9.96875 80.7155 9.96875C80.2486 9.96875 79.8401 10.0717 79.49 10.2777C79.1467 10.4768 78.8824 10.7652 78.697 11.1428C78.5116 11.5135 78.4155 11.9598 78.4086 12.4815Z" fill="white"/>
<path d="M98.6808 21.7088C97.1979 21.7088 95.9209 21.3587 94.8499 20.6584C93.7788 19.9581 92.955 18.9935 92.3783 17.7646C91.8016 16.5356 91.5132 15.1316 91.5132 13.5526C91.5132 11.946 91.8084 10.5283 92.3989 9.29936C92.9962 8.06357 93.8269 7.09896 94.8911 6.40554C95.9621 5.70526 97.2116 5.35511 98.6396 5.35511C99.7519 5.35511 100.754 5.56108 101.647 5.97301C102.539 6.38494 103.27 6.96165 103.84 7.70312C104.41 8.4446 104.764 9.30966 104.901 10.2983H102.471C102.285 9.57742 101.873 8.93892 101.235 8.38281C100.603 7.81984 99.7519 7.53835 98.6808 7.53835C97.7334 7.53835 96.9027 7.78551 96.1886 8.27983C95.4815 8.76728 94.9288 9.45727 94.5306 10.3498C94.1393 11.2354 93.9436 12.2756 93.9436 13.4702C93.9436 14.6922 94.1358 15.7564 94.5203 16.6626C94.9117 17.5689 95.4609 18.2726 96.168 18.7738C96.8821 19.275 97.7197 19.5256 98.6808 19.5256C99.3125 19.5256 99.8857 19.4157 100.401 19.196C100.916 18.9763 101.352 18.6605 101.709 18.2486C102.066 17.8366 102.32 17.3423 102.471 16.7656H104.901C104.764 17.6993 104.424 18.5404 103.881 19.2887C103.346 20.0302 102.635 20.6206 101.75 21.06C100.871 21.4925 99.848 21.7088 98.6808 21.7088Z" fill="white"/>
<path d="M114.88 21.7088C113.452 21.7088 112.199 21.369 111.121 20.6893C110.05 20.0096 109.213 19.0587 108.608 17.8366C108.011 16.6146 107.712 15.1866 107.712 13.5526C107.712 11.9048 108.011 10.4665 108.608 9.23757C109.213 8.00864 110.05 7.05433 111.121 6.37465C112.199 5.69496 113.452 5.35511 114.88 5.35511C116.308 5.35511 117.558 5.69496 118.629 6.37465C119.707 7.05433 120.544 8.00864 121.141 9.23757C121.746 10.4665 122.048 11.9048 122.048 13.5526C122.048 15.1866 121.746 16.6146 121.141 17.8366C120.544 19.0587 119.707 20.0096 118.629 20.6893C117.558 21.369 116.308 21.7088 114.88 21.7088ZM114.88 19.5256C115.965 19.5256 116.857 19.2475 117.558 18.6914C118.258 18.1353 118.776 17.4041 119.113 16.4979C119.449 15.5916 119.617 14.6098 119.617 13.5526C119.617 12.4953 119.449 11.5101 119.113 10.5969C118.776 9.68383 118.258 8.94579 117.558 8.38281C116.857 7.81984 115.965 7.53835 114.88 7.53835C113.795 7.53835 112.903 7.81984 112.202 8.38281C111.502 8.94579 110.984 9.68383 110.647 10.5969C110.311 11.5101 110.143 12.4953 110.143 13.5526C110.143 14.6098 110.311 15.5916 110.647 16.4979C110.984 17.4041 111.502 18.1353 112.202 18.6914C112.903 19.2475 113.795 19.5256 114.88 19.5256Z" fill="white"/>
<path d="M131.731 21.7088C130.412 21.7088 129.249 21.3758 128.24 20.7099C127.23 20.0371 126.441 19.0896 125.871 17.8675C125.301 16.6386 125.016 15.1866 125.016 13.5114C125.016 11.8499 125.301 10.4081 125.871 9.18608C126.441 7.96402 127.234 7.02001 128.25 6.35405C129.266 5.68809 130.44 5.35511 131.772 5.35511C132.802 5.35511 133.615 5.52675 134.213 5.87003C134.817 6.20644 135.277 6.59091 135.592 7.02344C135.915 7.4491 136.166 7.79924 136.344 8.07386H136.55V0.288352H138.981V21.3793H136.633V18.9489H136.344C136.166 19.2372 135.912 19.6011 135.582 20.0405C135.253 20.473 134.782 20.8609 134.171 21.2042C133.56 21.5406 132.747 21.7088 131.731 21.7088ZM132.06 19.5256C133.035 19.5256 133.859 19.2715 134.532 18.7635C135.205 18.2486 135.716 17.538 136.066 16.6317C136.416 15.7186 136.591 14.6648 136.591 13.4702C136.591 12.2893 136.42 11.256 136.077 10.3704C135.733 9.47786 135.225 8.78445 134.552 8.29013C133.88 7.78894 133.049 7.53835 132.06 7.53835C131.03 7.53835 130.172 7.80267 129.486 8.33132C128.806 8.8531 128.294 9.56368 127.951 10.4631C127.615 11.3556 127.447 12.358 127.447 13.4702C127.447 14.5961 127.618 15.6191 127.961 16.5391C128.312 17.4522 128.827 18.1799 129.506 18.7223C130.193 19.2578 131.044 19.5256 132.06 19.5256Z" fill="white"/>
<path d="M150.401 21.7088C148.877 21.7088 147.563 21.3724 146.457 20.6996C145.359 20.0199 144.511 19.0724 143.914 17.8572C143.323 16.6352 143.028 15.214 143.028 13.5938C143.028 11.9735 143.323 10.5455 143.914 9.30966C144.511 8.067 145.342 7.09896 146.406 6.40554C147.477 5.70526 148.726 5.35511 150.154 5.35511C150.978 5.35511 151.792 5.49242 152.595 5.76705C153.398 6.04167 154.129 6.48793 154.789 7.10582C155.448 7.71686 155.973 8.52699 156.364 9.53622C156.756 10.5455 156.951 11.7881 156.951 13.2642V14.294H144.758V12.1932H154.48C154.48 11.3007 154.301 10.5043 153.944 9.80398C153.594 9.10369 153.093 8.55102 152.441 8.14595C151.795 7.74089 151.033 7.53835 150.154 7.53835C149.186 7.53835 148.349 7.77865 147.641 8.25923C146.941 8.73296 146.402 9.35085 146.025 10.1129C145.647 10.875 145.458 11.692 145.458 12.5639V13.9645C145.458 15.1591 145.664 16.1718 146.076 17.0025C146.495 17.8264 147.075 18.4545 147.817 18.8871C148.558 19.3127 149.42 19.5256 150.401 19.5256C151.04 19.5256 151.617 19.4363 152.132 19.2578C152.653 19.0724 153.103 18.7978 153.481 18.434C153.858 18.0632 154.15 17.6032 154.356 17.054L156.704 17.7131C156.457 18.5095 156.041 19.2098 155.458 19.8139C154.874 20.4112 154.153 20.8781 153.295 21.2145C152.437 21.544 151.472 21.7088 150.401 21.7088Z" fill="white"/>
</svg>
