<svg width="14" height="14" viewBox="0 0 14 14" fill="none" xmlns="http://www.w3.org/2000/svg">
<g clip-path="url(#clip0_12_26)">
<path d="M8.30401 6.71098L13.104 1.91098C13.2929 1.69626 13.3929 1.4176 13.3836 1.13174C13.3742 0.845885 13.2563 0.574343 13.0537 0.372423C12.8512 0.170504 12.5792 0.0533957 12.2934 0.0449525C12.0075 0.0365093 11.7291 0.137366 11.515 0.32698L6.71501 5.12698L1.91501 0.32698C1.81462 0.208183 1.69067 0.111514 1.55099 0.0430871C1.41132 -0.0253393 1.25897 -0.0640332 1.10357 -0.070547C0.948171 -0.0770608 0.793113 -0.0512532 0.648203 0.00524438C0.503293 0.0617419 0.371686 0.147699 0.261706 0.257678C0.151727 0.367657 0.0657703 0.499265 0.0092727 0.644175C-0.0472249 0.789084 -0.0730324 0.944142 -0.0665187 1.09954C-0.0600049 1.25494 -0.0213109 1.40729 0.0471155 1.54696C0.115542 1.68664 0.212211 1.81059 0.331008 1.91098L5.13101 6.71098L0.331008 11.511C0.149107 11.7262 0.0547048 12.002 0.0665075 12.2835C0.0783101 12.5651 0.195456 12.832 0.394733 13.0313C0.594009 13.2305 0.860875 13.3477 1.14245 13.3595C1.42402 13.3713 1.69975 13.2769 1.91501 13.095L6.71501 8.29498L11.515 13.095C11.6154 13.2138 11.7393 13.3104 11.879 13.3789C12.0187 13.4473 12.1711 13.486 12.3264 13.4925C12.4818 13.499 12.6369 13.4732 12.7818 13.4167C12.9267 13.3602 13.0583 13.2743 13.1683 13.1643C13.2783 13.0543 13.3642 12.9227 13.4207 12.7778C13.4772 12.6329 13.503 12.4778 13.4965 12.3224C13.49 12.167 13.4513 12.0147 13.3829 11.875C13.3145 11.7353 13.2178 11.6114 13.099 11.511L8.30401 6.71098Z" fill="black"/>
</g>
<defs>
<clipPath id="clip0_12_26">
<rect width="13.426" height="13.423" fill="white"/>
</clipPath>
</defs>
</svg>
